<svg xmlns="http://www.w3.org/2000/svg" version="1.1" xmlns:xlink="http://www.w3.org/1999/xlink" xmlns:svgjs="http://svgjs.com/svgjs" width="1920" height="1080" preserveAspectRatio="none" viewBox="0 0 1920 1080"><g mask="url(&quot;#SvgjsMask1100&quot;)" fill="none"><rect width="1920" height="1080" x="0" y="0" fill="rgba(245, 245, 245, 1)"></rect><path d="M0,721.054C134.907,692.768,152.63,492.451,268.297,417.478C383.196,343.003,573.282,409.638,652.617,298.04C729.345,190.109,683.667,30.305,629.412,-90.496C581.155,-197.943,460.885,-244.679,373.43,-323.579C298.736,-390.967,244.355,-478.727,152.822,-520.464C52.498,-566.21,-57.326,-576.172,-167.426,-570.2C-302.878,-562.852,-461.706,-579.269,-556.258,-482.001C-650.751,-384.794,-621.023,-226.059,-633.205,-91.041C-644.724,36.631,-677.206,168.356,-625.519,285.665C-573.563,403.585,-457.622,473.889,-351.86,547.504C-242.305,623.759,-130.64,748.445,0,721.054" fill="#c4c4c4"></path><path d="M1920 1665.742C2046.642 1687.185 2190.351 1738.234 2297.526 1667.442 2404.746 1596.62 2405.953 1442.0810000000001 2444.288 1319.434 2477.786 1212.263 2523.538 1106.663 2507.545 995.524 2491.553 884.392 2421.627 793.371 2355.5280000000002 702.613 2283.741 604.046 2227.063 463.077 2106.494 444.85900000000004 1983.587 426.288 1893.133 557.047 1783.825 616.231 1700.597 661.2950000000001 1614.0439999999999 691.549 1540.609 751.256 1454.011 821.665 1358.888 889.212 1319.595 993.675 1276.022 1109.516 1254.509 1248.106 1312.6190000000001 1357.3809999999999 1370.2849999999999 1465.8220000000001 1507.058 1496.5430000000001 1616.5729999999999 1552.142 1714.862 1602.0430000000001 1811.316 1647.339 1920 1665.742" fill="#ffffff"></path></g><defs><mask id="SvgjsMask1100"><rect width="1920" height="1080" fill="#ffffff"></rect></mask></defs></svg>