<svg xmlns="http://www.w3.org/2000/svg" version="1.1" xmlns:xlink="http://www.w3.org/1999/xlink" xmlns:svgjs="http://svgjs.com/svgjs" width="1440" height="560" preserveAspectRatio="none" viewBox="0 0 1440 560"><g mask="url(&quot;#SvgjsMask1029&quot;)" fill="none"><path d="M389 358L388 777" stroke-width="8" stroke="url(#SvgjsLinearGradient1030)" stroke-linecap="round" class="Up"></path><path d="M581 542L580 876" stroke-width="8" stroke="url(#SvgjsLinearGradient1031)" stroke-linecap="round" class="Down"></path><path d="M899 221L898 439" stroke-width="10" stroke="url(#SvgjsLinearGradient1030)" stroke-linecap="round" class="Up"></path><path d="M408 253L407 -159" stroke-width="10" stroke="url(#SvgjsLinearGradient1030)" stroke-linecap="round" class="Up"></path><path d="M308 295L307 658" stroke-width="6" stroke="url(#SvgjsLinearGradient1030)" stroke-linecap="round" class="Up"></path><path d="M1094 216L1093 57" stroke-width="8" stroke="url(#SvgjsLinearGradient1031)" stroke-linecap="round" class="Down"></path><path d="M487 61L486 443" stroke-width="8" stroke="url(#SvgjsLinearGradient1031)" stroke-linecap="round" class="Down"></path><path d="M179 360L178 724" stroke-width="8" stroke="url(#SvgjsLinearGradient1030)" stroke-linecap="round" class="Up"></path><path d="M337 521L336 104" stroke-width="10" stroke="url(#SvgjsLinearGradient1030)" stroke-linecap="round" class="Up"></path><path d="M967 123L966 385" stroke-width="6" stroke="url(#SvgjsLinearGradient1031)" stroke-linecap="round" class="Down"></path><path d="M31 487L30 732" stroke-width="10" stroke="url(#SvgjsLinearGradient1031)" stroke-linecap="round" class="Down"></path><path d="M631 428L630 603" stroke-width="10" stroke="url(#SvgjsLinearGradient1031)" stroke-linecap="round" class="Down"></path><path d="M1355 273L1354 427" stroke-width="10" stroke="url(#SvgjsLinearGradient1031)" stroke-linecap="round" class="Down"></path><path d="M848 69L847 -127" stroke-width="8" stroke="url(#SvgjsLinearGradient1030)" stroke-linecap="round" class="Up"></path><path d="M808 268L807 673" stroke-width="10" stroke="url(#SvgjsLinearGradient1030)" stroke-linecap="round" class="Up"></path><path d="M516 146L515 -60" stroke-width="8" stroke="url(#SvgjsLinearGradient1030)" stroke-linecap="round" class="Up"></path><path d="M614 328L613 42" stroke-width="6" stroke="url(#SvgjsLinearGradient1030)" stroke-linecap="round" class="Up"></path><path d="M99 200L98 -202" stroke-width="6" stroke="url(#SvgjsLinearGradient1030)" stroke-linecap="round" class="Up"></path><path d="M1065 89L1064 -292" stroke-width="10" stroke="url(#SvgjsLinearGradient1030)" stroke-linecap="round" class="Up"></path><path d="M52 36L51 -267" stroke-width="6" stroke="url(#SvgjsLinearGradient1030)" stroke-linecap="round" class="Up"></path><path d="M1131 59L1130 -228" stroke-width="6" stroke="url(#SvgjsLinearGradient1031)" stroke-linecap="round" class="Down"></path><path d="M156 454L155 60" stroke-width="10" stroke="url(#SvgjsLinearGradient1030)" stroke-linecap="round" class="Up"></path><path d="M715 441L714 105" stroke-width="8" stroke="url(#SvgjsLinearGradient1031)" stroke-linecap="round" class="Down"></path><path d="M1269 32L1268 412" stroke-width="8" stroke="url(#SvgjsLinearGradient1030)" stroke-linecap="round" class="Up"></path><path d="M401 468L400 748" stroke-width="8" stroke="url(#SvgjsLinearGradient1030)" stroke-linecap="round" class="Up"></path><path d="M936 535L935 797" stroke-width="8" stroke="url(#SvgjsLinearGradient1031)" stroke-linecap="round" class="Down"></path><path d="M1248 310L1247 453" stroke-width="8" stroke="url(#SvgjsLinearGradient1030)" stroke-linecap="round" class="Up"></path><path d="M1244 221L1243 383" stroke-width="10" stroke="url(#SvgjsLinearGradient1030)" stroke-linecap="round" class="Up"></path><path d="M961 19L960 263" stroke-width="10" stroke="url(#SvgjsLinearGradient1031)" stroke-linecap="round" class="Down"></path><path d="M889 260L888 538" stroke-width="6" stroke="url(#SvgjsLinearGradient1030)" stroke-linecap="round" class="Up"></path><path d="M921 421L920 16" stroke-width="10" stroke="url(#SvgjsLinearGradient1030)" stroke-linecap="round" class="Up"></path><path d="M437 542L436 866" stroke-width="10" stroke="url(#SvgjsLinearGradient1031)" stroke-linecap="round" class="Down"></path><path d="M491 212L490 564" stroke-width="8" stroke="url(#SvgjsLinearGradient1030)" stroke-linecap="round" class="Up"></path><path d="M682 83L681 -164" stroke-width="8" stroke="url(#SvgjsLinearGradient1030)" stroke-linecap="round" class="Up"></path><path d="M1233 405L1232 40" stroke-width="6" stroke="url(#SvgjsLinearGradient1031)" stroke-linecap="round" class="Down"></path><path d="M599 200L598 574" stroke-width="8" stroke="url(#SvgjsLinearGradient1031)" stroke-linecap="round" class="Down"></path></g><defs><mask id="SvgjsMask1029"><rect width="1440" height="560" fill="#ffffff"></rect></mask><linearGradient x1="0%" y1="100%" x2="0%" y2="0%" id="SvgjsLinearGradient1030"><stop stop-color="rgba(97, 142, 246, 0)" offset="0"></stop><stop stop-color="rgba(97, 142, 246, 1)" offset="1"></stop></linearGradient><linearGradient x1="0%" y1="0%" x2="0%" y2="100%" id="SvgjsLinearGradient1031"><stop stop-color="rgba(97, 142, 246, 0)" offset="0"></stop><stop stop-color="rgba(97, 142, 246, 1)" offset="1"></stop></linearGradient></defs></svg>