<svg xmlns="http://www.w3.org/2000/svg" version="1.1" xmlns:xlink="http://www.w3.org/1999/xlink" xmlns:svgjs="http://svgjs.com/svgjs" width="1440" height="560" preserveAspectRatio="none" viewBox="0 0 1440 560"><g mask="url(&quot;#SvgjsMask1014&quot;)" fill="none"><path d="M0 416.69L10 429.33L20 393.54L30 351.35L40 330.4L50 398.77L60 405.03L70 470.01L80 512.29L90 479.76L100 465.26L110 469.69L120 512.61L130 450.72L140 502.56L150 539.08L160 528.07L170 544.36L180 542.33L190 547.31L200 509.48L210 517.31L220 481.81L230 497.05L240 456.6L250 416.91L260 381.74L270 407.3L280 462.73L290 497.74L300 461.39L310 491.09L320 532.69L330 539.08L340 510.12L350 541.7L360 472.41L370 476.24L380 407.83L390 470.38L400 406.76L410 397.24L420 347.86L430 392.63L440 332.84L450 336.79L460 396.34L470 448.46L480 424.77L490 356.07L500 327.12L510 318.48L520 309.74L530 338.43L540 361.41L550 351.9L560 353.09L570 307.52L580 264.08L590 293.16L600 304.54L610 292.4L620 319.56L630 275.63L640 333.27L650 369.77L660 427.44L670 448.31L680 491.46L690 468.9L700 419.88L710 377.87L720 418.3L730 391L740 341.27L750 375.51L760 318.3L770 253.92L780 261.1L790 248.17L800 285.79L810 279.48L820 250.33L830 197.45L840 137.92L850 161.78L860 187.72L870 163.17L880 177.32L890 143.64L900 119.36L910 142.39L920 177.82L930 244.41L940 225.64L950 173.99L960 216.35L970 152L980 172.64L990 163.26L1000 170.15L1010 129.23L1020 127.02L1030 183.18L1040 152.71L1050 158.13L1060 150.35L1070 98.79L1080 69.24L1090 39.67L1100 72.01L1110 59.73L1120 126.97L1130 123.41L1140 182.33L1150 214.97L1160 167.09L1170 165.4L1180 192.9L1190 166.66L1200 165.02L1210 116.66L1220 123.42L1230 178.09L1240 161.7L1250 186.8L1260 191.51L1270 241.12L1280 174.79L1290 229.21L1300 206.91L1310 251.42L1320 285.84L1330 323.13L1340 361.65L1350 427.11L1360 366.02L1370 373.17L1380 313.86L1390 321.55L1400 355.13L1410 423.22L1420 377.08L1430 424.75L1440 390.12" stroke="rgba(97, 142, 246, 1)" stroke-width="2"></path><path d="M0 416.69L10 429.33L20 393.54L30 351.35L40 330.4L50 398.77L60 405.03L70 470.01L80 512.29L90 479.76L100 465.26L110 469.69L120 512.61L130 450.72L140 502.56L150 539.08L160 528.07L170 544.36L180 542.33L190 547.31L200 509.48L210 517.31L220 481.81L230 497.05L240 456.6L250 416.91L260 381.74L270 407.3L280 462.73L290 497.74L300 461.39L310 491.09L320 532.69L330 539.08L340 510.12L350 541.7L360 472.41L370 476.24L380 407.83L390 470.38L400 406.76L410 397.24L420 347.86L430 392.63L440 332.84L450 336.79L460 396.34L470 448.46L480 424.77L490 356.07L500 327.12L510 318.48L520 309.74L530 338.43L540 361.41L550 351.9L560 353.09L570 307.52L580 264.08L590 293.16L600 304.54L610 292.4L620 319.56L630 275.63L640 333.27L650 369.77L660 427.44L670 448.31L680 491.46L690 468.9L700 419.88L710 377.87L720 418.3L730 391L740 341.27L750 375.51L760 318.3L770 253.92L780 261.1L790 248.17L800 285.79L810 279.48L820 250.33L830 197.45L840 137.92L850 161.78L860 187.72L870 163.17L880 177.32L890 143.64L900 119.36L910 142.39L920 177.82L930 244.41L940 225.64L950 173.99L960 216.35L970 152L980 172.64L990 163.26L1000 170.15L1010 129.23L1020 127.02L1030 183.18L1040 152.71L1050 158.13L1060 150.35L1070 98.79L1080 69.24L1090 39.67L1100 72.01L1110 59.73L1120 126.97L1130 123.41L1140 182.33L1150 214.97L1160 167.09L1170 165.4L1180 192.9L1190 166.66L1200 165.02L1210 116.66L1220 123.42L1230 178.09L1240 161.7L1250 186.8L1260 191.51L1270 241.12L1280 174.79L1290 229.21L1300 206.91L1310 251.42L1320 285.84L1330 323.13L1340 361.65L1350 427.11L1360 366.02L1370 373.17L1380 313.86L1390 321.55L1400 355.13L1410 423.22L1420 377.08L1430 424.75L1440 390.12L1440 560L0 560z" fill="url(#SvgjsLinearGradient1015)"></path></g><defs><mask id="SvgjsMask1014"><rect width="1440" height="560" fill="#ffffff"></rect></mask><linearGradient x1="50%" y1="0%" x2="50%" y2="100%" id="SvgjsLinearGradient1015"><stop stop-opacity="0.65" stop-color="rgba(97, 142, 246, 1)" offset="0"></stop><stop stop-opacity="0" stop-color="#ffffff" offset="0.8"></stop></linearGradient></defs></svg>